<?xml version="1.0" encoding="utf-8"?>
<!-- Generator: Adobe Illustrator 18.1.1, SVG Export Plug-In . SVG Version: 6.00 Build 0)  -->
<!DOCTYPE svg PUBLIC "-//W3C//DTD SVG 1.1//EN" "http://www.w3.org/Graphics/SVG/1.1/DTD/svg11.dtd">
<svg version="1.1" id="Layer_1" xmlns="http://www.w3.org/2000/svg" xmlns:xlink="http://www.w3.org/1999/xlink" x="0px" y="0px"
	 viewBox="0 0 774.421 640.472" enable-background="new 0 0 774.421 640.472" xml:space="preserve">
<g>
	<path d="M744.764,640.472c-8.999,0-17.998,0-26.997,0c-1.839-4.037-4.123-7.937-5.418-12.142c-2.228-7.235-3.9-14.644-5.698-22.007
		c-5.545-22.712-6.354-45.976-7.233-69.142c-0.515-13.556,1.58-27.193,1.473-40.785c-0.241-30.585-1.163-61.165-1.722-91.749
		c-0.186-10.156-0.07-20.317-0.171-30.475c-0.048-4.844-1.617-5.772-5.753-3.327c-5.105,3.019-9.285,7.015-8.628,13.49
		c1.536,15.132-2.865,29.646-4.273,44.463c-1.518,15.977-4.395,31.834-5.627,47.825c-1.873,24.319-2.583,48.727-4.295,73.061
		c-0.894,12.704-2.846,25.335-4.373,37.993c-1.148,9.516-2.554,19.003-3.525,28.536c-0.822,8.062-1.184,16.172-1.75,24.26
		c-37.662,0-75.324,0-112.986,0c-1.276-2.433-3.067-4.732-3.74-7.321c-3.114-11.969-5.547-24.126-8.975-35.999
		c-1.988-6.887-4.179-13.566-4.096-20.857c0.037-3.263-0.836-6.548-1.406-9.804c-1.457-8.322-3.107-16.613-4.437-24.955
		c-1.771-11.113-3.201-22.28-4.982-33.39c-1.544-9.633-3.442-19.209-5.056-28.832c-1.586-9.455,1.866-19.607-3.94-28.504
		c-0.315-0.482-0.06-1.312-0.147-1.97c-0.868-6.56-1.628-13.138-2.66-19.673c-1.752-11.096-3.619-22.175-5.607-33.231
		c-0.243-1.352-1.524-2.518-2.324-3.769c-0.778,1.24-1.957,2.392-2.252,3.737c-0.663,3.026-0.756,6.174-1.329,9.226
		c-0.604,3.22-2.215,6.402-2.145,9.573c0.451,20.596,1.236,41.185,1.931,61.776c0.028,0.825,0.288,1.639,0.363,2.465
		c1.202,13.366,2.445,26.729,3.534,40.104c0.2,2.456-0.549,4.994-0.318,7.443c1.024,10.855,2.247,21.691,3.394,32.534
		c0.14,1.321,0.253,2.645,0.386,3.968c1.204,12.01,2.919,23.995,3.482,36.035c0.644,13.79,0.265,27.628,0.33,41.444
		c-11.332,0-22.664,0-33.996,0c-6.851-9.685-9.953-20.415-10.085-32.315c-0.031-2.803-3.122-5.572-4.884-8.486
		c-1.876,7.847-4.149,14.801-5.06,21.929c-0.79,6.189-0.039,12.574,0.031,18.873c-35.329,0-70.658,0-105.987,0
		c0.054-3.65,0.049-7.302,0.178-10.949c0.131-3.707-0.755-6.511-4.28-8.741c-3.645-2.307-6.318-5.638-5.554-10.754
		c0.602-4.033-2.043-5.326-5.623-4.707c-4.015,0.694-6.69,2.868-6.743,7.291c-0.091,7.534-5.133,12.362-9.279,17.96
		c-1.587-1.959-2.886-3.563-4.521-5.583c-1.431,1.995-2.803,3.465-3.656,5.191c-1.659,3.355-3.028,6.853-4.517,10.292
		c-7.999,0-15.998,0-23.997,0c-2.771-4.545-7.367-2.723-11.29-3.219c-2.552-0.323-5.115-0.554-7.673-0.827
		c-0.09-0.621-0.179-1.242-0.269-1.863c1.852-1.131,3.591-2.542,5.575-3.35c16.301-6.635,24.348-23.421,19.01-38.9
		c-1.694-4.912-2.364-10.254-2.916-15.461c-0.578-5.448,0.371-11.152-0.794-16.425c-2.792-12.641-6.33-25.124-9.759-37.617
		c-3.632-13.233-7.573-26.382-11.215-39.612c-2.307-8.382-4.771-16.764-6.319-25.3c-1.383-7.621-1.482-15.467-2.41-23.182
		c-0.31-2.581-1.255-5.137-2.275-7.55c-0.336-0.796-1.9-1.639-2.757-1.509c-1.1,0.168-2.717,1.121-2.961,2.041
		c-1.561,5.899-2.875,11.867-4.14,17.839c-1.776,8.379-2.688,17.03-5.363,25.103c-2.628,7.933-7.043,15.267-10.572,22.912
		c-0.876,1.899-1.984,4-1.918,5.972c0.335,9.917,0.744,19.849,1.665,29.726c1.011,10.848,2.91,21.615,3.87,32.466
		c1.095,12.378,1.906,24.802,2.221,37.222c0.216,8.499,2.152,15.623,8.961,21.437c2.848,2.432,6.185,7.122,5.624,10.091
		c-0.977,5.171-6.755,4.503-11.311,4.702c-10.084,0.439-20.149,1.329-30.234,1.692c-1.511,0.054-3.785-1.382-4.501-2.757
		c-1.889-3.628-3.373-7.523-4.557-11.45c-3.178-10.544-5.958-21.21-9.229-31.724c-1.237-3.978-4.458-4.563-7.663-2.012
		c-8.687,6.913-13.73,15.801-13.045,27.01c0.502,8.218,2.133,16.366,3.26,24.546c-9.665,0-19.331,0-28.996,0
		c-0.807-7.996-1.4-16.024-2.583-23.965c-0.266-1.783-2.59-3.26-4.303-5.272c-2.082,2.899-3.659,4.814-4.928,6.915
		c-4.268,7.069-2.298,14.796-2.184,22.322c-11.332,0-22.664,0-33.996,0c0.985-9.674,0.134-18.799-8.225-26.528
		c-7.022,7.781-8.213,18.362-13.772,26.528c-11.999,0-23.997,0-35.995,0c0.174-0.467,0.224-1.052,0.54-1.383
		c10.949-11.489,11.545-24.933,7.757-39.378c-1.617-6.163-3.1-12.438-3.781-18.755c-1.648-15.288-2.716-30.637-4.156-45.949
		c-1.223-13.008-2.665-25.996-3.962-38.998c-1.345-13.487-2.924-26.959-3.864-40.474c-1.036-14.89-1.523-29.82-2.129-44.737
		c-0.352-8.647-0.103-17.333-0.789-25.949c-0.734-9.209-2.633-18.328-3.323-27.538c-0.744-9.926-3.602-19.023-7.892-27.935
		c-4.183-8.69-9.934-16.875-8.257-27.605c1.322-8.462,1.757-17.11,1.974-25.69c0.837-33.075,1.489-66.155,2.01-99.237
		c0.05-3.163-0.434-6.959-2.165-9.401c-4.266-6.018-4.559-12.205-2.811-18.877c1.628-6.216,4.732-12.42,4.688-18.612
		c-0.065-9.112,7.226-18.521,17.643-22.391c6.538-2.429,13.925-2.501,20.874-3.912c10.515-2.135,15.706-4.36,16.358-15.104
		c0.533-8.773-1.296-16.885-4.933-24.612c-5.639-11.984-4.689-24.036,1.628-34.8c4.494-7.659,11.691-13.803,18.045-20.266
		c2.479-2.522,10.336-1.54,13.035,1.028c8.124,7.731,15.798,15.808,20.252,26.383c3.735,8.866,6.043,24.546-4.081,33.233
		c-6.079,5.217-6.829,13.002-2.982,20.096c2.118,3.907,5.961,6.87,8.985,10.296c3.658,4.143,8.187,5.998,13.737,5.848
		c6.494-0.175,13.026-0.433,19.488,0.051c10.965,0.822,19.589-2.749,26.87-11.136c6.663-7.675,8.04-16.309,3.221-25.478
		c-2.904-5.524-6.441-11.248-7.269-17.218c-1.644-11.851-0.8-24.065,3.436-35.299c5.651-14.99,22.986-22.788,37.714-10.842
		c9.443,7.659,13.994,18.206,15.918,30.038c1.587,9.763-2.261,18.099-6.445,26.452c-3.924,7.834-2.599,16.54,3.823,22.331
		c4.237,3.821,8.943,7.288,13.896,10.112c8.197,4.674,15.498,0.359,14.971-8.95c-0.658-11.629,2.072-22.005,7.487-32.356
		c6.414-12.259,14.638-20.121,29.34-18.61c1.319,0.136,2.672-0.073,3.996,0.04c12.438,1.062,24.18,3.431,30.196,16.361
		c1.918,4.121,4.626,3.587,7.618,1.256c1.313-1.023,2.572-2.122,3.942-3.062c9.83-6.747,23.22-6.304,31.642,0
		c14.503,10.856,17.942,34.365,11.829,49.941c-2.02,5.147-2.342,10.975-3.318,16.514c-0.715,4.058,1.512,6.007,5.107,4.831
		c6.389-2.089,12.817-4.379,18.73-7.523c8.875-4.719,11.485-13.916,6.558-23.022c-6.926-12.8-10.991-25.844-10.194-40.818
		c1.119-21.031,19.636-35.565,39.942-30.074c9.988,2.701,18.294,7.672,24.329,16.266c2.712,3.863,4.827,3.61,7.682,0.115
		c3.571-4.373,7.341-8.607,11.282-12.649c8.81-9.036,20.24-9.023,29.392-0.081c4.394,4.294,7.87,8.991,10.678,14.745
		c6.806,13.946,6.012,27.155-0.667,40.561c-1.771,3.554-4.135,6.912-5.269,10.65c-0.827,2.725-1.342,7.145,0.173,8.71
		c7.295,7.534,15.495,14.088,26.02,16.811c4.794,1.24,9.609,2.41,14.367,3.776c3.39,0.973,5.177-0.014,4.047-3.536
		c-1.72-5.362-3.202-11.002-6.063-15.755c-5.791-9.619-8.611-19.635-7.658-30.847c0.785-9.242,8.186-20.175,15.734-22.502
		c3.964-1.222,7.942-2.399,11.931-3.536c10.242-2.919,19.438-1.699,26.725,6.882c2.58,3.038,5.006,6.225,7.786,9.067
		c1.251,1.278,3.236,2.61,4.817,2.53c1.124-0.057,2.645-2.285,3.093-3.808c1.498-5.096,2.784-10.272,3.805-15.485
		c2.508-12.812,10.086-21.923,21.721-26.726c9.059-3.74,18.272-2.99,26.508,4.168c7.857,6.827,10.606,14.972,9.335,24.895
		c-0.557,4.353,0.914,6.036,5.533,5.376c11.255-1.607,21.019,1.595,27.559,11.15c10.866,15.876,17.098,32.819,9.873,52.292
		c-3.5,9.434,1.693,20.236,11.336,24.155c10.327,4.197,17.164,11.406,20.57,22.146c4.406,13.892,8.46,27.976,14.1,41.372
		c5.225,12.409,11.16,24.416,12.18,38.089c0.358,4.794,1.017,9.643,0.637,14.395c-0.457,5.699-6.637,9.749-13.664,9.782
		c-10.141,0.048-11.029,0.148-9.897,10.207c1.57,13.954,4.622,27.743,7.062,41.598c1.521,8.639,4.197,17.249,4.369,25.912
		c0.266,13.406-1.038,26.855-1.937,40.268c-0.387,5.775-1.508,11.498-2.155,17.26c-1.239,11.023-2.45,22.049-3.513,33.09
		c-0.302,3.137,0.149,6.343-0.091,9.491c-1.201,15.708-2.531,31.406-3.787,47.109c-0.753,9.419-1.457,18.842-2.179,28.263
		c-0.747,9.76-1.444,19.523-2.242,29.278c-1.203,14.699-3.24,29.379-3.518,44.093C742.429,606.063,740.642,623.414,744.764,640.472z
		 M134.398,564.83c4.937-0.342,8.725-3.756,9.39-8.007c0.79-5.05,0.921-10.271,2.289-15.15c3.6-12.836,7.824-25.494,11.586-38.286
		c2.322-7.895,5.53-15.823,6.043-23.883c0.678-10.65-0.316-21.516-1.647-32.158c-1.572-12.566-4.168-25.009-6.508-37.471
		c-2.436-12.972-5.002-25.922-7.787-38.822c-0.305-1.411-2.545-3.499-3.675-3.373c-1.554,0.173-4.012,2.036-4.164,3.39
		c-1.033,9.199-1.716,18.447-2.215,27.694c-0.777,14.392-1.314,28.797-1.959,43.196c-0.697,15.581-1.774,31.156-2.014,46.744
		c-0.35,22.811-0.124,45.631-0.076,68.446C133.666,559.605,134.12,562.058,134.398,564.83z M400.235,554.488
		c0.325-0.003,0.649-0.005,0.974-0.008c0-5.163,0.339-10.36-0.185-15.469c-0.181-1.766-2.507-3.313-3.854-4.959
		c-0.852,0.786-2.297,1.463-2.467,2.376c-2.45,13.196-5.013,26.382-6.969,39.655c-1.98,13.439-4.698,26.538-10.76,38.874
		c-1.214,2.47-0.593,6.383,0.473,9.13c0.363,0.934,5.579,1.43,7.07,0.239c8.5-6.79,15.755-14.591,15.726-26.57
		C400.208,583.333,400.235,568.91,400.235,554.488z M620.757,85.268c-1.998-5.421-3.412-10.353-5.679-14.855
		c-0.883-1.753-3.688-2.537-5.617-3.763c-0.952,1.973-2.826,4.007-2.701,5.909c0.637,9.67-2.068,17.864-8.526,25.193
		c-1.309,1.486-0.202,5.101-0.209,7.734c2.599-0.114,5.754,0.663,7.677-0.535c3.463-2.159,6.63-5.168,9.096-8.443
		C617.277,93.216,618.75,89.166,620.757,85.268z M575.423,502.78c-0.445,2.828-0.845,4.202-0.849,5.576
		c-0.039,13.63-0.028,27.261,0.023,40.892c0.005,1.303-0.083,3.105,0.675,3.804c1.578,1.453,3.694,2.322,5.589,3.431
		c0.708-1.49,1.79-2.921,2.038-4.484c0.388-2.441,0.102-4.98,0.294-7.462c0.447-5.768,1.839-11.605,1.308-17.27
		c-0.612-6.532-2.716-12.955-4.547-19.318C579.5,506.363,577.606,505.192,575.423,502.78z M469.643,90.621
		c-0.601-2.883-0.743-5.969-1.909-8.602c-1.808-4.084-6.963-4.81-9.291-1.445c-3.191,4.612-6.094,9.433-8.952,14.264
		c-1.975,3.339-0.569,5.676,2.735,7.08C462.467,106.272,469.277,101.768,469.643,90.621z M329.535,120.364
		c-2.653,0.006-5.534,1.06-5.558,4.873c-0.026,4.042,3.147,5.206,6.519,5.403c3.576,0.209,4.606-2.375,4.485-5.265
		C334.862,122.57,333.91,120.028,329.535,120.364z"/>
</g>
</svg>
